<svg xmlns="http://www.w3.org/2000/svg" width="1200" height="630" viewBox="0 0 1200 630">
  <rect width="1200" height="630" fill="#16a34a" />
  <rect x="50" y="50" width="1100" height="530" rx="15" fill="#f0fdf4" />
  
  <!-- Title -->
  <text x="600" y="200" font-family="Arial, sans-serif" font-size="72" font-weight="bold" text-anchor="middle" fill="#16a34a">
    TDEE Calculator
  </text>
  
  <!-- Subtitle -->
  <text x="600" y="280" font-family="Arial, sans-serif" font-size="36" text-anchor="middle" fill="#4b5563">
    Calculate Your Daily Calorie Needs
  </text>
  
  <!-- Visual elements -->
  <g transform="translate(400, 400)">
    <!-- Calculator icon -->
    <rect x="-75" y="-75" width="150" height="180" rx="10" fill="#16a34a" />
    <rect x="-55" y="-55" width="110" height="40" rx="5" fill="#f0fdf4" />
    <rect x="-55" y="0" width="30" height="30" rx="5" fill="#f0fdf4" />
    <rect x="-15" y="0" width="30" height="30" rx="5" fill="#f0fdf4" />
    <rect x="25" y="0" width="30" height="30" rx="5" fill="#f0fdf4" />
    <rect x="-55" y="40" width="30" height="30" rx="5" fill="#f0fdf4" />
    <rect x="-15" y="40" width="30" height="30" rx="5" fill="#f0fdf4" />
    <rect x="25" y="40" width="30" height="30" rx="5" fill="#f0fdf4" />
  </g>
  
  <g transform="translate(800, 400)">
    <!-- Muscular arm -->
    <path d="M-70,-20 C-50,-40 0,-50 20,-20 C40,10 30,60 0,80 C-30,60 -40,10 -70,-20 Z" fill="#16a34a" />
    <ellipse cx="-10" cy="20" rx="20" ry="30" fill="#f0fdf4" opacity="0.3" />
  </g>
  
  <!-- URL -->
  <text x="600" y="550" font-family="Arial, sans-serif" font-size="28" text-anchor="middle" fill="#4b5563">
    tdee-calculator.vercel.app
  </text>
</svg> 